<?xml version="1.0" encoding="UTF-8" standalone="no"?>
<!DOCTYPE svg PUBLIC "-//W3C//DTD SVG 1.1//EN" "http://www.w3.org/Graphics/SVG/1.1/DTD/svg11.dtd">
<svg width="1882" height="570" viewBox="0 0 1882 570" version="1.1" xmlns="http://www.w3.org/2000/svg" xmlns:xlink="http://www.w3.org/1999/xlink" xml:space="preserve" xmlns:serif="http://www.serif.com/" style="fill-rule:evenodd;clip-rule:evenodd;stroke-linejoin:round;stroke-miterlimit:2;">
    <g>
        <path d="M56.961,396.636L56.961,169.244L91.699,169.244L191.137,335.235L172.712,335.235L270.688,169.244L305.421,169.244L305.792,396.636L265.648,396.636L265.277,232.066L273.779,232.066L190.731,370.795L171.656,370.795L87.42,232.066L97.104,232.066L97.104,396.636L56.961,396.636Z" style="fill:rgb(160,180,159);fill-rule:nonzero;"/>
        <path d="M364.714,396.636L364.714,210.971L505.514,210.971L505.514,243.923L405.604,243.923L405.604,363.684L509.087,363.684L509.087,396.636L364.714,396.636ZM400.122,318.465L400.122,286.544L494.19,286.544L494.19,318.465L400.122,318.465Z" style="fill:rgb(160,180,159);fill-rule:nonzero;"/>
        <path d="M609.172,399.813C594.493,399.813 580.173,397.892 566.211,394.049C552.25,390.207 541.122,385.107 532.828,378.749L548.061,347.056C555.891,352.846 565.403,357.486 576.599,360.976C587.794,364.467 599.305,366.212 611.131,366.212C624.822,366.212 634.374,364.148 639.786,360.019C645.199,355.891 647.905,350.995 647.905,345.33C647.905,340.092 645.916,335.961 641.938,332.935C637.961,329.91 632.697,327.479 626.148,325.642C619.598,323.804 612.407,322.081 604.574,320.472C596.74,318.863 588.945,316.955 581.19,314.747C573.434,312.539 566.282,309.504 559.732,305.643C553.183,301.783 547.919,296.623 543.942,290.165C539.964,283.707 537.975,275.484 537.975,265.495C537.975,253.932 541.192,243.837 547.627,235.208C554.061,226.579 563.192,219.853 575.02,215.03C586.848,210.206 600.838,207.794 616.989,207.794C628.446,207.794 639.972,209.054 651.567,211.573C663.161,214.092 673.214,218.167 681.724,223.798L667.837,255.729C659.682,250.345 651.097,246.611 642.083,244.524C633.068,242.438 624.215,241.395 615.522,241.395C602.616,241.395 593.272,243.466 587.491,247.608C581.71,251.75 578.819,256.898 578.819,263.053C578.819,268.264 580.809,272.375 584.788,275.385C588.768,278.395 594.032,280.818 600.581,282.656C607.131,284.493 614.33,286.209 622.179,287.805C630.027,289.4 637.822,291.295 645.562,293.49C653.303,295.684 660.447,298.711 666.994,302.57C673.542,306.429 678.806,311.48 682.785,317.721C686.764,323.963 688.754,331.971 688.754,341.747C688.754,353.468 685.565,363.657 679.186,372.313C672.808,380.969 663.719,387.716 651.92,392.555C640.12,397.394 625.871,399.813 609.172,399.813Z" style="fill:rgb(160,180,159);fill-rule:nonzero;"/>
        <path d="M697.06,396.636L781.352,210.971L821.958,210.971L906.25,396.636L865.487,396.636L794.727,231.741L808.624,231.741L737.128,396.636L697.06,396.636ZM739.102,356.37L750.025,325.012L846.92,325.012L857.843,356.37L739.102,356.37Z" style="fill:rgb(160,180,159);fill-rule:nonzero;"/>
        <path d="M946.3,396.636L946.3,169.244L955.436,169.244L1062.53,355.35L1057.68,355.35L1164.31,169.244L1173.45,169.244L1173.49,396.636L1162.77,396.636L1162.73,185.471L1166.12,185.471L1062.76,365.273L1056.99,365.273L953.203,185.471L957.02,185.471L957.02,396.636L946.3,396.636Z" style="fill:rgb(199,92,60);fill-rule:nonzero;"/>
        <path d="M1429.17,396.636L1429.17,214.53L1438.21,214.53L1571.88,383.489L1567.13,383.489L1567.13,214.53L1577.89,214.53L1577.89,396.636L1568.85,396.636L1435.19,227.676L1439.94,227.676L1439.94,396.636L1429.17,396.636Z" style="fill:rgb(199,92,60);fill-rule:nonzero;"/>
        <path d="M1654.34,396.636L1654.34,214.53L1726.25,214.53C1746.69,214.53 1764.19,218.412 1778.73,226.178C1793.28,233.944 1804.49,244.664 1812.38,258.338C1820.27,272.012 1824.22,287.714 1824.22,305.446C1824.22,323.173 1820.27,338.921 1812.38,352.688C1804.49,366.455 1793.28,377.221 1778.73,384.987C1764.19,392.753 1746.69,396.636 1726.25,396.636L1654.34,396.636ZM1665.11,387.037L1725.5,387.037C1744.24,387.037 1760.17,383.528 1773.3,376.51C1786.43,369.492 1796.39,359.837 1803.2,347.543C1810,335.25 1813.4,321.217 1813.4,305.446C1813.4,289.64 1810,275.599 1803.2,263.322C1796.39,251.046 1786.43,241.444 1773.3,234.518C1760.17,227.591 1744.24,224.128 1725.5,224.128L1665.11,224.128L1665.11,387.037Z" style="fill:rgb(199,92,60);fill-rule:nonzero;"/>
        <g>
            <path d="M1379.32,368.542L1390.95,396.636L1215.15,396.636L1226.78,368.542L1379.32,368.542Z" style="fill:rgb(199,92,60);"/>
            <path d="M1367.08,331.419L1376.79,359.513L1230.17,359.513L1239.88,331.419L1367.08,331.419Z" style="fill:rgb(199,92,60);"/>
            <path d="M1356.95,294.296L1365.05,322.39L1242.64,322.39L1250.74,294.296L1356.95,294.296Z" style="fill:rgb(199,92,60);"/>
            <g>
                <path d="M1307.36,167.488L1354.94,249.893C1355.67,251.15 1355.67,252.699 1354.94,253.956C1354.21,255.214 1352.87,255.988 1351.42,255.988L1256.27,255.988C1254.82,255.988 1253.48,255.214 1252.75,253.956C1252.02,252.699 1252.02,251.15 1252.75,249.893L1300.33,167.488C1301.05,166.23 1302.39,165.456 1303.85,165.456C1305.3,165.456 1306.64,166.23 1307.36,167.488ZM1303.85,169.519L1256.27,251.925L1351.42,251.925L1303.85,169.519Z" style="fill:rgb(199,92,60);"/>
                <path d="M1360.81,227.975L1278.41,275.552C1277.15,276.278 1275.6,276.278 1274.35,275.552C1273.09,274.826 1272.31,273.485 1272.31,272.033L1272.31,176.88C1272.31,175.428 1273.09,174.086 1274.35,173.36C1275.6,172.635 1277.15,172.635 1278.41,173.36L1360.81,220.937C1362.07,221.663 1362.85,223.005 1362.85,224.456C1362.85,225.908 1362.07,227.249 1360.81,227.975ZM1358.78,224.456L1276.38,176.88L1276.38,272.033L1358.78,224.456Z" style="fill:rgb(199,92,60);"/>
                <path d="M1300.33,281.425L1252.75,199.02C1252.02,197.762 1252.02,196.213 1252.75,194.956C1253.48,193.699 1254.82,192.924 1256.27,192.924L1351.42,192.924C1352.87,192.924 1354.21,193.699 1354.94,194.956C1355.67,196.213 1355.67,197.762 1354.94,199.02L1307.36,281.425C1306.64,282.682 1305.3,283.457 1303.85,283.457C1302.39,283.457 1301.05,282.682 1300.33,281.425ZM1303.85,279.393L1351.42,196.988L1256.27,196.988L1303.85,279.393Z" style="fill:rgb(199,92,60);"/>
                <path d="M1246.88,220.937L1329.28,173.36C1330.54,172.635 1332.09,172.635 1333.35,173.36C1334.6,174.086 1335.38,175.428 1335.38,176.88L1335.38,272.033C1335.38,273.485 1334.6,274.826 1333.35,275.552C1332.09,276.278 1330.54,276.278 1329.28,275.552L1246.88,227.975C1245.62,227.249 1244.84,225.908 1244.84,224.456C1244.84,223.005 1245.62,221.663 1246.88,220.937ZM1248.91,224.456L1331.31,272.033L1331.31,176.88L1248.91,224.456Z" style="fill:rgb(199,92,60);"/>
                <path d="M1303.85,193.456C1320.96,193.456 1334.85,207.344 1334.85,224.456C1334.85,241.569 1320.96,255.456 1303.85,255.456C1286.74,255.456 1272.85,241.569 1272.85,224.456C1272.85,207.344 1286.74,193.456 1303.85,193.456ZM1303.85,197.52C1318.72,197.52 1330.78,209.588 1330.78,224.456C1330.78,239.325 1318.72,251.393 1303.85,251.393C1288.98,251.393 1276.92,239.325 1276.92,224.456C1276.92,209.588 1288.98,197.52 1303.85,197.52Z" style="fill:rgb(199,92,60);"/>
            </g>
        </g>
    </g>
</svg>
